<svg id="bold" enable-background="new 0 0 24 24" height="512" viewBox="0 0 24 24" width="512" xmlns="http://www.w3.org/2000/svg"><g><path d="m17.25 0h-1.25-8-1.25c-1.517 0-2.75 1.233-2.75 2.75v18.5c0 1.517 1.233 2.75 2.75 2.75h10.5c1.517 0 2.75-1.233 2.75-2.75v-18.5c0-1.517-1.233-2.75-2.75-2.75zm.75 21c0 .552-.448 1-1 1h-10c-.552 0-1-.448-1-1v-18c0-.552.448-1 1-1h.5c.552 0 1 .448 1 1s.448 1 1 1h5c.552 0 1-.448 1-1s.448-1 1-1h.5c.552 0 1 .448 1 1z"/></g><g><path d="m7.75 10.389c-.414 0-.75-.336-.75-.75v-1.889c0-.414.336-.75.75-.75h1.889c.414 0 .75.336.75.75s-.336.75-.75.75h-1.139v1.139c0 .414-.336.75-.75.75z"/></g><g><path d="m16.25 17h-2.833c-.414 0-.75-.336-.75-.75s.336-.75.75-.75h2.083v-1.139c0-.414.336-.75.75-.75s.75.336.75.75v1.889c0 .414-.336.75-.75.75z"/></g><g><path d="m16.25 12.028h-2.583c-.414 0-.75-.336-.75-.75v-3.528c0-.414.336-.75.75-.75h2.583c.414 0 .75.336.75.75v3.528c0 .414-.336.75-.75.75zm-1.833-1.5h1.083v-2.028h-1.083z"/></g><g><path d="m11.278 17h-3.528c-.414 0-.75-.336-.75-.75v-2.583c0-.414.336-.75.75-.75h3.528c.414 0 .75.336.75.75v2.583c0 .414-.336.75-.75.75zm-2.778-1.5h2.028v-1.083h-2.028z"/></g><g><path d="m10.554 12.278h-2.804c-.414 0-.75-.336-.75-.75s.336-.75.75-.75h2.804c.414 0 .75.336.75.75s-.336.75-.75.75z"/></g><g><path d="m13.417 15.111c-.414 0-.75-.336-.75-.75v-.945c0-.414.336-.75.75-.75s.75.336.75.75v.945c0 .414-.336.75-.75.75z"/></g><g><path d="m11.528 10.389c-.414 0-.75-.336-.75-.75v-1.889c0-.414.336-.75.75-.75s.75.336.75.75v1.889c0 .414-.336.75-.75.75z"/></g></svg>